<svg xmlns="http://www.w3.org/2000/svg" viewBox="0 0 236 236"><defs><style>.cls-1{fill:#231815;}</style></defs><g id="レイヤー_2" data-name="レイヤー 2"><g id="レイヤー_1-2" data-name="レイヤー 1"><path class="cls-1" d="M167,236H69A69.07,69.07,0,0,1,0,167V69A69.07,69.07,0,0,1,69,0h98a69.07,69.07,0,0,1,69,69v98A69.07,69.07,0,0,1,167,236ZM69,22A47,47,0,0,0,22,69v98a47,47,0,0,0,47,47h98a47,47,0,0,0,47-47V69a47,47,0,0,0-47-47Z"/><circle class="cls-1" cx="181.06" cy="55.06" r="14.71" transform="translate(86.11 218.77) rotate(-76.8)"/><path class="cls-1" d="M118,179a61,61,0,1,1,61-61A61.06,61.06,0,0,1,118,179Zm0-100a39,39,0,1,0,39,39A39,39,0,0,0,118,79Z"/></g></g></svg>