<svg xmlns="http://www.w3.org/2000/svg" viewBox="0 0 236 236"><defs><style>.cls-1{fill:#231815}</style></defs><g id="レイヤー_2" data-name="レイヤー 2"><g id="レイヤー_1-2" data-name="レイヤー 1"><path class="cls-1" d="M167 236H69a69.07 69.07 0 0 1-69-69V69A69.07 69.07 0 0 1 69 0h98a69.07 69.07 0 0 1 69 69v98a69.07 69.07 0 0 1-69 69zM69 22a47 47 0 0 0-47 47v98a47 47 0 0 0 47 47h98a47 47 0 0 0 47-47V69a47 47 0 0 0-47-47z"/><circle class="cls-1" cx="181.06" cy="55.06" r="14.71" transform="rotate(-76.8 181.065 55.063)"/><path class="cls-1" d="M118 179a61 61 0 1 1 61-61 61.06 61.06 0 0 1-61 61zm0-100a39 39 0 1 0 39 39 39 39 0 0 0-39-39z"/></g></g></svg>