<svg xmlns="http://www.w3.org/2000/svg" viewBox="0 0 134.95 36.37"><g data-name="レイヤー 2"><path d="M90.25 22.1a3.77 3.77 0 0 0 0-7.53H79.74V7.83h10.51a3.77 3.77 0 0 0 0-7.53H76a3.76 3.76 0 0 0-3.76 3.76V32.6A3.77 3.77 0 0 0 76 36.37h14.25a3.77 3.77 0 0 0 0-7.53H79.74V22.1zM63.38.3a3.76 3.76 0 0 0-3.76 3.76v17.66L45 1.8a3.77 3.77 0 0 0-6.78 2.26V32.6a3.77 3.77 0 1 0 7.53 0V15l14.62 19.87a3.8 3.8 0 0 0 3 1.5 3.52 3.52 0 0 0 1.2-.2 3.73 3.73 0 0 0 2.57-3.57V4.06A3.76 3.76 0 0 0 63.38.3M29 .3a3.76 3.76 0 0 0-3.77 3.76V32.6a3.76 3.76 0 1 0 7.52 0V4.06A3.75 3.75 0 0 0 29 .3M18 28.84H7.53V4.06a3.77 3.77 0 0 0-7.53 0V32.6a3.77 3.77 0 0 0 3.77 3.77H18a3.77 3.77 0 0 0 0-7.53m98.83 7.39A18.12 18.12 0 1 1 135 18.12v2.5a6.85 6.85 0 0 1-13.69 0v-2.5a4.43 4.43 0 1 0-4.43 4.42 4.26 4.26 0 0 0 .89-.09 2.46 2.46 0 1 1 1 4.82 9.75 9.75 0 0 1-1.88.19 9.35 9.35 0 1 1 9.34-9.34v2.5a1.94 1.94 0 0 0 3.87 0v-2.5a13.2 13.2 0 1 0-8.16 12.19 2.46 2.46 0 1 1 1.88 4.54 18 18 0 0 1-6.92 1.38z" data-name="TYPE A"/></g></svg>